<svg width="40" height="40" viewBox="0 0 40 40" fill="none" xmlns="http://www.w3.org/2000/svg">
<g clip-path="url(#clip0_209_715)">
<path d="M3.125 36.875L0.714486 36.2121L-0.451288 40.4513L3.78789 39.2855L3.125 36.875ZM10.625 34.8125L11.9544 32.6953L11.0228 32.1103L9.96211 32.402L10.625 34.8125ZM5.1875 29.375L7.59801 30.0379L7.8897 28.9772L7.30473 28.0456L5.1875 29.375ZM3.78789 39.2855L11.2879 37.223L9.96211 32.402L2.46211 34.4645L3.78789 39.2855ZM9.29558 36.9297C12.3701 38.8602 16.079 40 20 40V35C17.046 35 14.2549 34.1398 11.9544 32.6953L9.29558 36.9297ZM20 40C31.0682 40 40 31.0682 40 20H35C35 28.3068 28.3068 35 20 35V40ZM40 20C40 8.93179 31.0682 0 20 0V5C28.3068 5 35 11.6932 35 20H40ZM20 0C8.93179 0 0 8.93179 0 20H5C5 11.6932 11.6932 5 20 5V0ZM0 20C0 23.921 1.13979 27.6299 3.07028 30.7044L7.30473 28.0456C5.86021 25.7451 5 22.954 5 20H0ZM2.77699 28.7121L0.714486 36.2121L5.53551 37.5379L7.59801 30.0379L2.77699 28.7121Z" fill="#E8F4FC"/>
<path d="M28.6875 24.75C27.5 27.25 25.3125 27.5625 25.3125 27.5625C23.4375 27.9375 21.0625 27.125 19.1875 26.25C16.5 25 14.1875 23 12.625 20.4375C11.9375 19.25 11.3125 17.875 11.25 16.5625C11.25 16.5625 11 14.375 13.125 12.625C13.3125 12.5 13.5 12.4375 13.75 12.4375H14.6875C15.0625 12.4375 15.4375 12.6875 15.5625 13.0625L17 16.5625C17.125 16.9375 17.0625 17.3125 16.8125 17.625L15.875 18.625C15.5625 18.9375 15.5625 19.375 15.75 19.75C15.8125 19.875 15.9375 20.0625 16.125 20.25C17.25 21.75 18.75 22.875 20.4375 23.625C20.6875 23.75 20.875 23.8125 21.0625 23.875C21.5 24 21.875 23.8125 22.125 23.5L22.875 22.375C23.0625 22.0625 23.4375 21.875 23.8125 21.9375L27.5625 22.5C27.9375 22.5625 28.25 22.875 28.375 23.25L28.625 24.1875C28.75 24.3125 28.75 24.5625 28.6875 24.75Z" fill="#E8F4FC"/>
</g>
<defs>
<clipPath id="clip0_209_715">
<rect width="40" height="40" fill="white"/>
</clipPath>
</defs>
</svg>
