<svg width="107" height="128" viewBox="0 0 107 128" fill="none" xmlns="http://www.w3.org/2000/svg">
<path d="M19.7542 97.9281L29.4493 95.2963L32.0162 105.009C32.6701 107.483 35.9964 107.937 37.2816 105.713L53.0336 78.4552L68.7874 105.742C70.0617 107.949 73.3941 107.534 74.0534 105.04L76.6203 95.3267L86.3154 97.9585C88.7878 98.6296 90.8392 95.9721 89.5566 93.7496L71.3243 62.1567C70.5295 60.7793 68.771 60.3128 67.3995 61.1044L53.0351 69.3955L38.6781 61.1047C37.308 60.3134 35.5496 60.778 34.7537 62.1552L16.5139 93.7177C15.2326 95.9349 17.2751 98.601 19.7542 97.9281Z" fill="#1994E1" stroke="black" stroke-width="5.74487"/>
<path d="M34.3984 68.4787V79.1574H46.2095L48.1628 81.1183L53.0347 72.6894L37.241 63.5688L34.3984 68.4787Z" fill="#051E2E"/>
<path d="M74.7111 73.7458L68.8284 63.5688L53.0347 72.6894L59.0162 83.0488L62.9 79.1574H74.7111V73.7458Z" fill="#051E2E"/>
<path d="M83.5105 53.8781L76.0561 46.4237V35.8837C76.0561 34.2576 74.7379 32.9395 73.1119 32.9395H62.5718L55.112 25.4796C53.9622 24.3298 52.098 24.3298 50.9482 25.4796L43.4883 32.9395H32.9503C31.3243 32.9395 30.0061 34.2577 30.0061 35.8837V46.4217L22.5497 53.8781C21.3999 55.0279 21.3999 56.8921 22.5497 58.0419L30.0061 65.4983V76.0452C30.0061 77.6713 31.3243 78.9895 32.9503 78.9895H43.4973L50.9482 86.4404C52.098 87.5902 53.9622 87.5902 55.112 86.4404L62.5629 78.9895H73.1119C74.7379 78.9895 76.0561 77.6713 76.0561 76.0452V65.4963L83.5105 58.0419C84.6603 56.8921 84.6602 55.0279 83.5105 53.8781Z" fill="#37FF45" stroke="black" stroke-width="5.74487"/>
<path opacity="0.2" d="M73.7424 77.1396L30.2505 33.6477L42.1698 33.2494L52.6397 22.7795L61.8565 31.9964L76.1596 31.5185L75.6817 45.8216L84.6105 54.7504L74.1407 65.2203L73.7424 77.1396Z" fill="black"/>
<path d="M53.0347 67.3692C59.3311 67.3692 64.4354 62.265 64.4354 55.9685C64.4354 49.6721 59.3311 44.5679 53.0347 44.5679C46.7383 44.5679 41.634 49.6721 41.634 55.9685C41.634 62.265 46.7383 67.3692 53.0347 67.3692Z" fill="#1994E1"/>
<path d="M44.4766 55.9911C44.4716 53.2101 45.4833 50.5231 47.3212 48.436C49.1592 46.3489 51.6967 45.0056 54.456 44.6589C52.8464 44.4456 51.2098 44.5785 49.6558 45.0489C48.1018 45.5192 46.6661 46.316 45.445 47.386C44.2238 48.4561 43.2452 49.7746 42.5748 51.2534C41.9044 52.7322 41.5576 54.3371 41.5576 55.9607C41.5576 57.5844 41.9044 59.1893 42.5748 60.6681C43.2452 62.1468 44.2238 63.4654 45.445 64.5354C46.6661 65.6054 48.1018 66.4023 49.6558 66.8726C51.2098 67.3429 52.8464 67.4759 54.456 67.2626C51.707 66.9172 49.1779 65.5826 47.3413 63.5082C45.5048 61.4339 44.4864 58.7617 44.4766 55.9911V55.9911Z" fill="#051E2E"/>
</svg>
