<svg width="128" height="128" viewBox="0 0 128 128" fill="none" xmlns="http://www.w3.org/2000/svg">
<path d="M83.4374 36.1115C82.9864 34.4368 82.3198 32.8277 81.4545 31.3247L84.7284 26.2292L82.0596 23.5645L81.7913 23.2962L79.1226 20.6234L74.0271 23.9074C72.5245 23.0412 70.9153 22.3746 69.2403 21.9245L67.9594 16H60.0378L58.7569 21.9245C57.0804 22.3741 55.4699 23.0407 53.966 23.9074L48.8706 20.6234L46.1998 23.2922L45.9335 23.5645L43.2648 26.2292L46.5488 31.3247C45.6826 32.8273 45.016 34.4365 44.5659 36.1115L38.6414 37.3924V45.32L44.5659 46.601C45.016 48.2753 45.6826 49.8838 46.5488 51.3858L43.2648 56.4812L45.9335 59.152L46.1998 59.4183L48.8706 62.0931L53.966 58.8091C55.468 59.6753 57.0765 60.3419 58.7508 60.792L60.0378 66.7105H67.9654L69.2464 60.7859C70.9214 60.3358 72.5305 59.6692 74.0332 58.803L79.1226 62.0931L81.7913 59.4243L82.0596 59.158L84.7284 56.4873L81.4444 51.3918C82.3137 49.8881 82.9837 48.2776 83.4374 46.601L89.3619 45.32V37.3924L83.4374 36.1115ZM64.0057 51.5754C61.984 51.5754 60.0078 50.9759 58.3269 49.8527C56.646 48.7295 55.3359 47.133 54.5623 45.2652C53.7888 43.3974 53.5865 41.3422 53.981 39.3594C54.3756 37.3767 55.3493 35.5554 56.7789 34.126C58.2086 32.6967 60.03 31.7234 62.0128 31.3292C63.9957 30.935 66.0509 31.1377 67.9185 31.9117C69.7862 32.6856 71.3824 33.996 72.5052 35.6771C73.6281 37.3582 74.2272 39.3346 74.2268 41.3562C74.2268 42.6993 73.9621 44.0291 73.4478 45.2697C72.9335 46.5104 72.1797 47.6375 71.2294 48.5865C70.2792 49.5356 69.1512 50.2881 67.91 50.801C66.6688 51.3138 65.3386 51.577 63.9956 51.5754H64.0057Z" fill="#37FF45"/>
<path opacity="0.2" d="M56.8834 33.88L46.667 23.6636L49.7102 21.0551L54.275 23.6636L59.2745 21.0551L60.144 16.2729H67.9693L69.2736 21.7072L74.7078 23.6636L79.2726 21.0551L84.2722 26.7068L81.6637 31.7063L83.6201 36.0537L89.0543 37.7927V45.618L83.6201 47.1396L81.6637 52.3565L84.2722 57.1387L82.5332 58.8777L71.882 48.2265C73.5485 45.4007 75.6643 38.5752 70.7952 33.88C65.9261 29.1848 59.4919 31.9237 56.8834 33.88Z" fill="black"/>
<path d="M37.429 92.7827H19.5344C17.5781 92.7827 15.9922 94.3686 15.9922 96.3249V109.082C15.9922 111.038 17.5781 112.624 19.5344 112.624H37.429C39.3853 112.624 40.9712 111.038 40.9712 109.082V96.3249C40.9712 94.3686 39.3853 92.7827 37.429 92.7827Z" fill="#1994E1"/>
<path d="M73.0772 92.7827H55.1826C53.2263 92.7827 51.6404 94.3686 51.6404 96.3249V109.082C51.6404 111.038 53.2263 112.624 55.1826 112.624H73.0772C75.0335 112.624 76.6194 111.038 76.6194 109.082V96.3249C76.6194 94.3686 75.0335 92.7827 73.0772 92.7827Z" fill="#1994E1"/>
<path d="M109.015 92.7827H91.1208C89.1645 92.7827 87.5786 94.3686 87.5786 96.3249V109.082C87.5786 111.038 89.1645 112.624 91.1208 112.624H109.015C110.972 112.624 112.558 111.038 112.558 109.082V96.3249C112.558 94.3686 110.972 92.7827 109.015 92.7827Z" fill="#1994E1"/>
<path d="M37.4272 92.7827H30.7886C31.728 92.7827 32.629 93.1559 33.2933 93.8202C33.9576 94.4845 34.3308 95.3855 34.3308 96.3249V109.082C34.3308 110.021 33.9576 110.922 33.2933 111.586C32.629 112.251 31.728 112.624 30.7886 112.624H37.4232C38.3626 112.624 39.2636 112.251 39.9279 111.586C40.5922 110.922 40.9654 110.021 40.9654 109.082V96.3249C40.9654 95.3862 40.5927 94.4858 39.9293 93.8216C39.2659 93.1575 38.3659 92.7838 37.4272 92.7827V92.7827Z" fill="#0F5B8A"/>
<path d="M73.077 92.7827H66.4424C67.3818 92.7827 68.2828 93.1559 68.9471 93.8202C69.6114 94.4845 69.9846 95.3855 69.9846 96.3249V109.082C69.9846 110.021 69.6114 110.922 68.9471 111.586C68.2828 112.251 67.3818 112.624 66.4424 112.624H73.077C74.0164 112.624 74.9174 112.251 75.5817 111.586C76.246 110.922 76.6192 110.021 76.6192 109.082V96.3249C76.6192 95.3855 76.246 94.4845 75.5817 93.8202C74.9174 93.1559 74.0164 92.7827 73.077 92.7827V92.7827Z" fill="#0F5B8A"/>
<path d="M109.013 92.7827H102.379C103.318 92.7827 104.219 93.1559 104.884 93.8202C105.548 94.4845 105.921 95.3855 105.921 96.3249V109.082C105.921 110.021 105.548 110.922 104.884 111.586C104.219 112.251 103.318 112.624 102.379 112.624H109.013C109.953 112.624 110.854 112.251 111.518 111.586C112.182 110.922 112.556 110.021 112.556 109.082V96.3249C112.556 95.3855 112.182 94.4845 111.518 93.8202C110.854 93.1559 109.953 92.7827 109.013 92.7827V92.7827Z" fill="#0F5B8A"/>
<path d="M37.429 92.7827H19.5344C17.5781 92.7827 15.9922 94.3686 15.9922 96.3249V109.082C15.9922 111.038 17.5781 112.624 19.5344 112.624H37.429C39.3853 112.624 40.9712 111.038 40.9712 109.082V96.3249C40.9712 94.3686 39.3853 92.7827 37.429 92.7827Z" stroke="#051E2E" stroke-width="4.03441" stroke-linecap="round" stroke-linejoin="round"/>
<path d="M23.9924 102.703H32.969" stroke="#051E2E" stroke-width="4.03441" stroke-linecap="round" stroke-linejoin="round"/>
<path d="M73.0772 92.7827H55.1826C53.2263 92.7827 51.6404 94.3686 51.6404 96.3249V109.082C51.6404 111.038 53.2263 112.624 55.1826 112.624H73.0772C75.0335 112.624 76.6194 111.038 76.6194 109.082V96.3249C76.6194 94.3686 75.0335 92.7827 73.0772 92.7827Z" stroke="#051E2E" stroke-width="4.03441" stroke-linecap="round" stroke-linejoin="round"/>
<path d="M59.6426 102.703H68.6191" stroke="#051E2E" stroke-width="4.03441" stroke-linecap="round" stroke-linejoin="round"/>
<path d="M109.015 92.7827H91.1208C89.1645 92.7827 87.5786 94.3686 87.5786 96.3249V109.082C87.5786 111.038 89.1645 112.624 91.1208 112.624H109.015C110.972 112.624 112.558 111.038 112.558 109.082V96.3249C112.558 94.3686 110.972 92.7827 109.015 92.7827Z" stroke="#051E2E" stroke-width="4.03441" stroke-linecap="round" stroke-linejoin="round"/>
<path d="M95.5789 102.703H104.555" stroke="#051E2E" stroke-width="4.03441" stroke-linecap="round" stroke-linejoin="round"/>
<path d="M64.3103 66.9082V79.3685H30.4495C29.9273 79.3685 29.4266 79.5759 29.0574 79.9451C28.6881 80.3143 28.4807 80.8151 28.4807 81.3373V92.7829" stroke="#051E2E" stroke-width="4.03441" stroke-linecap="round" stroke-linejoin="round"/>
<path d="M64.3103 66.9082V79.3685H98.163C98.6852 79.3685 99.1859 79.5759 99.5551 79.9451C99.9244 80.3143 100.132 80.8151 100.132 81.3373V92.7829" stroke="#051E2E" stroke-width="4.03441" stroke-linecap="round" stroke-linejoin="round"/>
<path d="M64.1309 92.7828V79.3684" stroke="#051E2E" stroke-width="4.03441" stroke-linecap="round" stroke-linejoin="round"/>
<path d="M83.4374 36.1115C82.9864 34.4368 82.3198 32.8277 81.4545 31.3247L84.7284 26.2292L82.0596 23.5645L81.7913 23.2962L79.1226 20.6234L74.0271 23.9074C72.5245 23.0412 70.9153 22.3746 69.2403 21.9245L67.9594 16H60.0378L58.7569 21.9245C57.0804 22.3741 55.4699 23.0407 53.966 23.9074L48.8706 20.6234L46.1998 23.2922L45.9335 23.5645L43.2648 26.2292L46.5488 31.3247C45.6826 32.8273 45.016 34.4365 44.5659 36.1115L38.6414 37.3924V45.32L44.5659 46.601C45.016 48.2753 45.6826 49.8838 46.5488 51.3858L43.2648 56.4812L45.9335 59.152L46.1998 59.4183L48.8706 62.0931L53.966 58.8091C55.468 59.6753 57.0765 60.3419 58.7508 60.792L60.0378 66.7105H67.9654L69.2464 60.7859C70.9214 60.3358 72.5305 59.6692 74.0332 58.803L79.1226 62.0931L81.7913 59.4243L82.0596 59.158L84.7284 56.4873L81.4444 51.3918C82.3137 49.8881 82.9837 48.2776 83.4374 46.601L89.3619 45.32V37.3924L83.4374 36.1115ZM64.0057 51.5754C61.984 51.5754 60.0078 50.9759 58.3269 49.8527C56.646 48.7295 55.3359 47.133 54.5623 45.2652C53.7888 43.3974 53.5865 41.3422 53.981 39.3594C54.3756 37.3767 55.3493 35.5554 56.7789 34.126C58.2086 32.6967 60.03 31.7234 62.0128 31.3292C63.9957 30.935 66.0509 31.1377 67.9185 31.9117C69.7862 32.6856 71.3824 33.996 72.5052 35.6771C73.6281 37.3582 74.2272 39.3346 74.2268 41.3562C74.2268 42.6993 73.9621 44.0291 73.4478 45.2697C72.9335 46.5104 72.1797 47.6375 71.2294 48.5865C70.2792 49.5356 69.1512 50.2881 67.91 50.801C66.6688 51.3138 65.3386 51.577 63.9956 51.5754H64.0057Z" stroke="#051E2E" stroke-width="4.03441" stroke-linecap="round" stroke-linejoin="round"/>
<circle cx="63.8391" cy="41.2708" r="8.69484" fill="#1994E1"/>
</svg>
