<svg width="130" height="128" viewBox="0 0 130 128" fill="none" xmlns="http://www.w3.org/2000/svg">
<path d="M56.0451 86.5653C56.7848 85.5249 57.8218 84.73 59.0215 84.2837C60.2212 83.8375 61.528 83.7605 62.7722 84.063C64.2897 84.4191 65.6219 85.3196 66.5137 86.5921C67.4056 87.8646 67.7943 89.4196 67.6056 90.9595C67.4169 92.4995 66.664 93.916 65.491 94.938C64.318 95.96 62.8074 96.5157 61.2483 96.4986C60.2287 96.4991 59.2239 96.2559 58.3184 95.7895C57.4129 95.323 56.6333 94.647 56.0451 93.8183V108H88.0318C89.0461 107.998 90.0184 107.597 90.7352 106.882C91.4519 106.168 91.8545 105.2 91.8545 104.191V72.3836H77.5285C78.6461 71.6242 79.4899 70.5286 79.9361 69.2573C80.3823 67.986 80.4076 66.606 80.0082 65.3194C79.6088 64.0328 78.8057 62.9073 77.7166 62.1079C76.6275 61.3085 75.3097 60.8772 73.9563 60.8772C72.603 60.8772 71.2852 61.3085 70.1961 62.1079C69.107 62.9073 68.3039 64.0328 67.9045 65.3194C67.5051 66.606 67.5303 67.986 67.9766 69.2573C68.4228 70.5286 69.2665 71.6242 70.3842 72.3836H56.0396L56.0451 86.5653Z" fill="#1994E1"/>
<path d="M85.8244 72.3835V104.191C85.8244 105.201 85.4211 106.17 84.7031 106.884C83.9852 107.599 83.0114 108 81.9961 108H88.032C89.0464 107.998 90.0187 107.596 90.7354 106.882C91.4522 106.168 91.8548 105.2 91.8548 104.191V72.3835H85.8244Z" fill="#0F5B8A"/>
<path d="M41.7735 72.3835C42.8741 73.1541 43.6995 74.2534 44.1299 75.5221C44.5604 76.7909 44.5734 78.163 44.1673 79.4396C43.7611 80.7163 42.9568 81.831 41.8711 82.6222C40.7853 83.4133 39.4744 83.8398 38.1286 83.8398C36.7828 83.8398 35.472 83.4133 34.3862 82.6222C33.3004 81.831 32.4961 80.7163 32.09 79.4396C31.6838 78.163 31.6969 76.7909 32.1273 75.5221C32.5577 74.2534 33.3831 73.1541 34.4838 72.3835H20.2305V104.191C20.2305 105.201 20.6338 106.17 21.3518 106.884C22.0697 107.599 23.0435 108 24.0588 108H56.0454V93.7441C56.6935 94.6967 57.5925 95.4535 58.6439 95.9318C59.6953 96.4101 60.8587 96.5914 62.0068 96.4559C63.6314 96.291 65.1292 95.5081 66.1875 94.2708C67.2459 93.0334 67.7831 91.4372 67.6869 89.8152C67.5908 88.1932 66.8688 86.6709 65.6715 85.5659C64.4743 84.4609 62.8944 83.8587 61.2616 83.8849C60.2323 83.8849 59.2187 84.1358 58.3094 84.6156C57.4001 85.0955 56.6227 85.7897 56.0454 86.6375V72.3835H41.7735Z" fill="#37FF45"/>
<path d="M88.0281 55.4215C86.932 54.6549 86.1099 53.5609 85.681 52.2981C85.2521 51.0352 85.2387 49.6693 85.6427 48.3983C86.0467 47.1274 86.8472 46.0175 87.928 45.2298C89.0087 44.4421 90.3136 44.0174 91.6534 44.0174C92.9931 44.0174 94.298 44.4421 95.3788 45.2298C96.4596 46.0175 97.26 47.1274 97.664 48.3983C98.0681 49.6693 98.0546 51.0352 97.6257 52.2981C97.1968 53.5609 96.3747 54.6549 95.2786 55.4215H109.454V23.9627C109.454 22.9141 109.035 21.9085 108.29 21.167C107.545 20.4256 106.534 20.009 105.48 20.009H73.8344V34.1759C73.1894 33.2283 72.2949 32.4756 71.2486 32.0003C70.2024 31.5249 69.0449 31.3452 67.9028 31.4808C66.3044 31.6671 64.8381 32.4547 63.8045 33.682C62.7708 34.9093 62.2481 36.4835 62.3433 38.082C62.4386 39.6804 63.1447 41.1821 64.3169 42.2793C65.4891 43.3765 67.0386 43.986 68.648 43.9831C69.6718 43.9833 70.68 43.7339 71.5845 43.2566C72.4889 42.7793 73.2621 42.0888 73.8362 41.2454V55.4215H88.0281Z" fill="#37FF45"/>
<path d="M105.48 20H99.4443C99.9669 20 100.484 20.1026 100.967 20.3018C101.45 20.5011 101.888 20.7932 102.257 21.1613C102.627 21.5294 102.919 21.9663 103.118 22.4471C103.317 22.9278 103.419 23.443 103.418 23.9629V55.4217H109.454V23.9629C109.455 23.443 109.353 22.9278 109.154 22.4471C108.955 21.9663 108.662 21.5294 108.293 21.1613C107.924 20.7932 107.486 20.5011 107.003 20.3018C106.52 20.1026 106.003 20 105.48 20V20Z" fill="#3BBF44"/>
<path d="M56.0454 58.202C55.3058 59.2424 54.2687 60.0373 53.069 60.4836C51.8694 60.9298 50.5625 61.0067 49.3183 60.7043C47.8008 60.3482 46.4686 59.4477 45.5768 58.1752C44.685 56.9027 44.2962 55.3477 44.4849 53.8078C44.6736 52.2678 45.4265 50.8513 46.5995 49.8293C47.7725 48.8073 49.2832 48.2516 50.8422 48.2687C51.8619 48.2682 52.8667 48.5114 53.7722 48.9778C54.6776 49.4443 55.4573 50.1203 56.0454 50.949V36.7673H24.0588C23.0438 36.7673 22.0703 37.1684 21.3524 37.8823C20.6345 38.5963 20.231 39.5647 20.2305 40.5746V72.3837H34.5583C33.4405 73.143 32.5965 74.2386 32.1501 75.5099C31.7036 76.7812 31.6782 78.1613 32.0775 79.448C32.4769 80.7347 33.28 81.8603 34.3691 82.6599C35.4582 83.4594 36.7761 83.8907 38.1296 83.8907C39.483 83.8907 40.8009 83.4594 41.89 82.6599C42.9791 81.8603 43.7822 80.7347 44.1816 79.448C44.5809 78.1613 44.5555 76.7812 44.109 75.5099C43.6626 74.2386 42.8186 73.143 41.7008 72.3837H56.0454V58.202Z" fill="#1994E1"/>
<path d="M56.0454 58.202C55.3058 59.2424 54.2687 60.0373 53.069 60.4836C51.8694 60.9298 50.5625 61.0067 49.3183 60.7043C47.8008 60.3482 46.4686 59.4477 45.5768 58.1752C44.685 56.9027 44.2962 55.3477 44.4849 53.8078C44.6736 52.2678 45.4265 50.8513 46.5995 49.8293C47.7725 48.8073 49.2832 48.2516 50.8422 48.2687C51.8619 48.2682 52.8667 48.5114 53.7722 48.9778C54.6776 49.4443 55.4573 50.1203 56.0454 50.949V36.7673H24.0588C23.0438 36.7673 22.0703 37.1684 21.3524 37.8823C20.6345 38.5963 20.231 39.5647 20.2305 40.5746V72.3837H34.5583C33.4405 73.143 32.5965 74.2386 32.1501 75.5099C31.7036 76.7812 31.6782 78.1613 32.0775 79.448C32.4769 80.7347 33.28 81.8603 34.3691 82.6599C35.4582 83.4594 36.7761 83.8907 38.1296 83.8907C39.483 83.8907 40.8009 83.4594 41.89 82.6599C42.9791 81.8603 43.7822 80.7347 44.1816 79.448C44.5809 78.1613 44.5555 76.7812 44.109 75.5099C43.6626 74.2386 42.8186 73.143 41.7008 72.3837H56.0454V58.202Z" stroke="#051E2E" stroke-width="6.48555" stroke-linecap="round" stroke-linejoin="round"/>
<path d="M88.0281 55.4215C86.932 54.6549 86.1099 53.5609 85.681 52.2981C85.2521 51.0352 85.2387 49.6693 85.6427 48.3983C86.0467 47.1274 86.8472 46.0175 87.928 45.2298C89.0087 44.4421 90.3136 44.0174 91.6534 44.0174C92.9931 44.0174 94.298 44.4421 95.3788 45.2298C96.4596 46.0175 97.26 47.1274 97.664 48.3983C98.0681 49.6693 98.0546 51.0352 97.6257 52.2981C97.1968 53.5609 96.3747 54.6549 95.2786 55.4215H109.454V23.9627C109.454 22.9141 109.035 21.9085 108.29 21.167C107.545 20.4256 106.534 20.009 105.48 20.009H73.8344V34.1759C73.1894 33.2283 72.2949 32.4756 71.2486 32.0003C70.2024 31.5249 69.0449 31.3452 67.9028 31.4808C66.3044 31.6671 64.8381 32.4547 63.8045 33.682C62.7708 34.9093 62.2481 36.4835 62.3433 38.082C62.4386 39.6804 63.1447 41.1821 64.3169 42.2793C65.4891 43.3765 67.0386 43.986 68.648 43.9831C69.6718 43.9833 70.68 43.7339 71.5845 43.2566C72.4889 42.7793 73.2621 42.0888 73.8362 41.2454V55.4215H88.0281Z" stroke="#051E2E" stroke-width="6.48555" stroke-linecap="round" stroke-linejoin="round"/>
<path d="M56.0451 86.5653C56.7848 85.5249 57.8218 84.73 59.0215 84.2837C60.2212 83.8375 61.528 83.7605 62.7722 84.063C64.2897 84.4191 65.6219 85.3196 66.5137 86.5921C67.4056 87.8646 67.7943 89.4196 67.6056 90.9595C67.4169 92.4995 66.664 93.916 65.491 94.938C64.318 95.96 62.8074 96.5157 61.2483 96.4986C60.2287 96.4991 59.2239 96.2559 58.3184 95.7895C57.4129 95.323 56.6333 94.647 56.0451 93.8183V108H88.0318C89.0461 107.998 90.0184 107.597 90.7352 106.882C91.4519 106.168 91.8545 105.2 91.8545 104.191V72.3836H77.5285C78.6461 71.6242 79.4899 70.5286 79.9361 69.2573C80.3823 67.986 80.4076 66.606 80.0082 65.3194C79.6088 64.0328 78.8057 62.9073 77.7166 62.1079C76.6275 61.3085 75.3097 60.8772 73.9563 60.8772C72.603 60.8772 71.2852 61.3085 70.1961 62.1079C69.107 62.9073 68.3039 64.0328 67.9045 65.3194C67.5051 66.606 67.5303 67.986 67.9766 69.2573C68.4228 70.5286 69.2665 71.6242 70.3842 72.3836H56.0396L56.0451 86.5653Z" stroke="#051E2E" stroke-width="6.48555" stroke-linecap="round" stroke-linejoin="round"/>
<path d="M41.7735 72.3835C42.8741 73.1541 43.6995 74.2534 44.1299 75.5221C44.5604 76.7909 44.5734 78.163 44.1673 79.4396C43.7611 80.7163 42.9568 81.831 41.8711 82.6222C40.7853 83.4133 39.4744 83.8398 38.1286 83.8398C36.7828 83.8398 35.472 83.4133 34.3862 82.6222C33.3004 81.831 32.4961 80.7163 32.09 79.4396C31.6838 78.163 31.6969 76.7909 32.1273 75.5221C32.5577 74.2534 33.3831 73.1541 34.4838 72.3835H20.2305V104.191C20.2305 105.201 20.6338 106.17 21.3518 106.884C22.0697 107.599 23.0435 108 24.0588 108H56.0454V93.7441C56.6935 94.6967 57.5925 95.4535 58.6439 95.9318C59.6953 96.4101 60.8587 96.5914 62.0068 96.4559C63.6314 96.291 65.1292 95.5081 66.1875 94.2708C67.2459 93.0334 67.7831 91.4372 67.6869 89.8152C67.5908 88.1932 66.8688 86.6709 65.6715 85.5659C64.4743 84.4609 62.8944 83.8587 61.2616 83.8849C60.2323 83.8849 59.2187 84.1358 58.3094 84.6156C57.4001 85.0955 56.6227 85.7897 56.0454 86.6375V72.3835H41.7735Z" stroke="#051E2E" stroke-width="6.48555" stroke-linecap="round" stroke-linejoin="round"/>
</svg>
