<svg width="40" height="40" viewBox="0 0 40 40" fill="none" xmlns="http://www.w3.org/2000/svg">
<path fill-rule="evenodd" clip-rule="evenodd" d="M35.113 0C37.8102 0 40 2.18771 40 4.88226V35.0787C40 37.7732 37.8102 39.9609 35.113 39.9609H26.7952V24.9042H31.9983L32.9883 18.4557H26.7952V14.271C26.7952 12.5068 27.6602 10.7872 30.4342 10.7872H33.25V5.29724C33.25 5.29724 30.6945 4.86158 28.2514 4.86158C23.1508 4.86158 19.817 7.94988 19.817 13.5409V18.4557H14.1473V24.9042H19.817V39.9609H4.88703C2.18984 39.9609 0 37.7732 0 35.0787V4.88226C0 2.18771 2.18977 0 4.88703 0H35.113V0Z" fill="#E8F4FC"/>
</svg>
