<svg width="128" height="128" viewBox="0 0 128 128" fill="none" xmlns="http://www.w3.org/2000/svg">
<path d="M53.8161 31.6957C53.9934 31.3896 54.1838 31.092 54.3866 30.8035C58.7514 37.0875 64.9803 46.0294 69.7876 52.9306L44.8154 95.9955C44.8148 95.9966 44.8142 95.9977 44.8135 95.9987C43.1779 98.7986 40.5011 100.838 37.3673 101.671C34.2352 102.504 30.9009 102.065 28.0913 100.45C25.2938 98.8139 23.2563 96.1383 22.4233 93.0062C21.5899 89.8726 22.0298 86.5366 23.647 83.7262C23.6477 83.725 23.6484 83.7238 23.6491 83.7226L53.8157 31.6963L53.8161 31.6957Z" fill="#3BBF44" stroke="black" stroke-width="5.9878"/>
<path d="M46.4616 89.8667C46.4616 96.6232 40.9843 102.1 34.2277 102.1C27.4712 102.1 21.9939 96.6232 21.9939 89.8667C21.9939 83.1101 27.4712 77.6328 34.2277 77.6328C40.9843 77.6328 46.4616 83.1101 46.4616 89.8667Z" fill="#37FF45" stroke="black" stroke-width="5.9878"/>
<path d="M100.567 100.519C94.7156 103.897 87.2335 101.893 83.8552 96.0412L53.7805 43.9504C50.4022 38.099 52.407 30.6169 58.2584 27.2386C64.1098 23.8603 71.5918 25.8652 74.9701 31.7165L105.045 83.8074C108.423 89.6587 106.418 97.1408 100.567 100.519Z" fill="#1994E1" stroke="black" stroke-width="5.9878"/>
<path opacity="0.5" d="M103.333 86.798L72.271 32.9077L99.5904 97.6508C104.455 94.2827 104.081 89.4176 103.333 86.798Z" fill="#0F5B8A"/>
</svg>
