<svg width="580" height="580" viewBox="0 0 580 580" fill="none" xmlns="http://www.w3.org/2000/svg">
<path d="M380.673 112.713L373.895 120.417L367.002 128.121C337.247 106.667 301.032 96.0726 264.406 98.1074C227.78 100.142 192.961 114.683 165.766 139.301C145.031 158.964 129.782 183.694 121.523 211.051C113.265 238.407 112.282 267.444 118.672 295.296C127.039 330.09 146.299 361.303 173.644 384.387C177.76 387.883 180.425 392.786 181.121 398.141C181.817 403.496 180.494 408.918 177.41 413.35C162.118 402.822 148.355 390.229 136.514 375.93C118.171 354.144 105.213 328.347 98.6879 300.625C91.6202 269.679 92.5573 237.442 101.41 206.959C110.321 175.249 127.798 146.609 151.922 124.182C182.853 96.1196 222.546 79.6316 264.257 77.5196C305.968 75.4077 347.123 87.8022 380.731 112.597L380.673 112.713Z" fill="#39B54A"/>
<path d="M478.973 272.068C478.88 275.145 478.066 278.158 476.597 280.864C475.128 283.57 473.046 285.894 470.516 287.65L460.495 294.601C458.696 295.869 457.23 297.554 456.221 299.51C455.213 301.467 454.692 303.638 454.702 305.839V351.485C454.702 359.005 453.22 366.452 450.34 373.399C447.461 380.347 443.24 386.658 437.919 391.974C432.599 397.289 426.283 401.503 419.332 404.376C412.382 407.249 404.934 408.723 397.413 408.716H386.06C384.969 408.716 383.923 409.149 383.152 409.92C382.38 410.692 381.947 411.738 381.947 412.828V435.999C376.77 435.998 371.784 434.039 367.991 430.515C364.199 426.991 361.879 422.162 361.499 416.999C361.471 416.497 361.471 415.995 361.499 415.493V412.713C361.499 406.183 364.093 399.921 368.71 395.305C373.327 390.688 379.588 388.094 386.118 388.094H397.413C402.241 388.102 407.023 387.157 411.485 385.315C415.948 383.473 420.003 380.769 423.419 377.358C426.836 373.947 429.546 369.896 431.395 365.436C433.245 360.977 434.196 356.196 434.196 351.369V305.839C434.19 300.321 435.519 294.883 438.071 289.991C440.623 285.098 444.322 280.896 448.852 277.745L457.888 271.488L430.315 250.23C425.697 246.631 421.879 242.11 419.107 236.953C416.334 231.797 414.667 226.119 414.212 220.282C414.212 219.239 414.212 218.196 414.212 217.154V193.983C414.22 185.176 412.115 176.494 408.072 168.67L415.834 161.95L423.943 154.999C431.023 166.768 434.749 180.249 434.718 193.983V217.154C434.742 220.355 435.483 223.509 436.887 226.386C438.29 229.263 440.32 231.789 442.827 233.779L471.327 255.791C473.792 257.711 475.769 260.186 477.097 263.015C478.426 265.843 479.069 268.944 478.973 272.068Z" fill="#39B54A"/>
<path d="M343.079 154.999L336.417 162.472L329.408 170.465C318.067 162.905 305.341 157.667 291.964 155.054C278.588 152.441 264.826 152.504 251.473 155.241C238.121 157.977 225.444 163.331 214.173 170.995C202.902 178.659 193.262 188.481 185.809 199.892L177.236 194.099L169.068 188.307C178.14 174.498 189.892 162.651 203.627 153.469C217.362 144.286 232.801 137.954 249.028 134.848C265.256 131.741 281.942 131.925 298.097 135.386C314.252 138.848 329.548 145.517 343.079 154.999Z" fill="#F7931E"/>
<path d="M396.081 256.37C396.063 279.123 389.777 301.431 377.913 320.846C366.05 340.261 349.067 356.032 328.829 366.43V426.615C328.813 431.859 326.719 436.883 323.006 440.586C319.292 444.289 314.262 446.368 309.018 446.368H227.921C226.575 446.368 225.242 446.103 224 445.586C222.757 445.069 221.629 444.311 220.68 443.356C219.715 442.415 218.95 441.289 218.432 440.044C217.914 438.799 217.654 437.463 217.668 436.115C217.668 433.396 218.748 430.788 220.671 428.865C222.594 426.942 225.202 425.862 227.921 425.862H304.789C305.716 425.847 306.6 425.468 307.25 424.807C307.901 424.146 308.265 423.256 308.265 422.328V374.771C284.829 381.875 259.814 381.875 236.378 374.771V391.627H215.641V366.43C188.232 352.299 167.094 328.433 156.376 299.518C145.659 270.603 146.136 238.726 157.715 210.145L165.129 219.181L173.007 228.797C168.5 245.084 168.061 262.229 171.728 278.725C175.395 295.222 183.057 310.566 194.039 323.41C205.022 336.254 218.99 346.205 234.717 352.39C250.444 358.574 267.449 360.803 284.239 358.88C301.028 356.957 317.089 350.941 331.01 341.361C344.932 331.781 356.288 318.93 364.083 303.935C371.877 288.941 375.871 272.262 375.713 255.363C375.556 238.465 371.251 221.863 363.179 207.017L371.173 200.123L378.819 193.23C390.166 212.333 396.131 234.151 396.081 256.37Z" fill="#F15A24"/>
<path d="M328.887 472.84C328.866 474.207 328.574 475.556 328.027 476.809C327.48 478.062 326.689 479.194 325.701 480.139C324.752 481.094 323.624 481.852 322.382 482.369C321.139 482.886 319.806 483.152 318.46 483.151H228.269C225.544 483.136 222.936 482.042 221.015 480.11C219.094 478.178 218.016 475.565 218.016 472.84C218.031 470.125 219.116 467.526 221.036 465.607C222.955 463.687 225.554 462.602 228.269 462.587H318.634C321.353 462.587 323.961 463.667 325.884 465.59C327.806 467.513 328.887 470.121 328.887 472.84Z" fill="#F15A24"/>
<path d="M307.454 510.55C307.439 513.264 306.354 515.864 304.434 517.783C302.515 519.703 299.916 520.788 297.201 520.803H249.759C247.04 520.803 244.432 519.723 242.509 517.8C240.587 515.877 239.506 513.269 239.506 510.55C239.506 507.831 240.587 505.223 242.509 503.3C244.432 501.377 247.04 500.297 249.759 500.297H297.201C298.547 500.297 299.881 500.562 301.125 501.077C302.369 501.593 303.499 502.348 304.451 503.3C305.403 504.252 306.158 505.382 306.673 506.626C307.189 507.87 307.454 509.203 307.454 510.55Z" fill="#F15A24"/>
<path d="M332.073 233.547V323.275H307.454V243.8L313.826 249.245L332.073 233.547Z" fill="#46CBF9"/>
<path d="M286.485 225.785V323.275H261.808V231.52L276.058 216.806L286.485 225.785Z" fill="#46CBF9"/>
<path d="M238.869 255.269V323.275H214.193V279.193L214.888 280.062L238.869 255.269Z" fill="#46CBF9"/>
<path d="M486.388 60L485.056 153.435C478.027 146.793 470.96 139.957 463.855 132.929C458.815 128.005 453.891 123.024 449.026 118.1L321.067 227.986L314.115 234.242L307.454 228.449L275.594 201.108L223.808 254.69L215.641 262.742L209.211 254.922L161.712 196.995L162.001 196.706L214.888 233.952L267.369 179.733L274.088 172.782L281.387 179.096L312.957 206.148L418.383 87.457L391.389 60.5793L486.388 60Z" fill="#0071BC"/>
</svg>
