<svg width="40" height="40" viewBox="0 0 40 40" fill="none" xmlns="http://www.w3.org/2000/svg">
<path fill-rule="evenodd" clip-rule="evenodd" d="M35 0C37.7596 0 40 2.24039 40 5V35C40 37.7596 37.7596 40 35 40H5C2.24039 40 0 37.7596 0 35V5C0 2.24039 2.24039 0 5 0H35ZM4.37489 8.4823C4.37489 6.50707 5.87268 5.00004 8.16504 5.00004C10.4561 5.00004 11.8667 6.50707 11.9101 8.4823C11.9101 10.4161 10.4559 11.9646 8.11965 11.9646H8.07636C5.82714 11.9646 4.37489 10.4161 4.37489 8.4823ZM4.76474 14.7266H11.465V34.8799H4.76474V14.7266ZM21.8746 17.5656C22.766 16.1928 24.3579 14.2383 27.912 14.2383C32.3196 14.2383 35.6248 17.118 35.6248 23.3084V34.8654H28.926V24.0826C28.926 21.3746 27.9553 19.5258 25.5324 19.5258C23.6817 19.5258 22.5788 20.7721 22.0954 21.9752C21.9178 22.4057 21.8745 23.008 21.8745 23.6104V34.8654H15.176C15.176 34.8654 15.2649 16.6026 15.176 14.7122H21.8746V17.5656Z" fill="#E8F4FC"/>
</svg>
