<svg width="128" height="128" viewBox="0 0 128 128" fill="none" xmlns="http://www.w3.org/2000/svg">
<path d="M67.5 34.1965H60.5V94.5715H67.5V34.1965Z" fill="#0A3D5C"/>
<path d="M101.625 91.509H26.375C25.8918 91.509 25.5 91.9008 25.5 92.384V97.634C25.5 98.1173 25.8918 98.509 26.375 98.509H101.625C102.108 98.509 102.5 98.1173 102.5 97.634V92.384C102.5 91.9008 102.108 91.509 101.625 91.509Z" fill="#C3EDF5" stroke="black" stroke-width="7"/>
<path d="M25.5 24.5715H102.5V43.8215H25.5V24.5715Z" fill="#1994E1" stroke="black" stroke-width="7"/>
<path d="M25.5 56.0715H102.5V75.3215H25.5V56.0715Z" fill="#37FF45" stroke="black" stroke-width="7"/>
<path d="M95.5176 34.1965H53.5176" stroke="#0F5B8A" stroke-width="7" stroke-miterlimit="10"/>
<path d="M95.5176 65.6965H53.5176" stroke="#3BBF44" stroke-width="7" stroke-miterlimit="10"/>
<path d="M36.175 37.6965C38.108 37.6965 39.675 36.1295 39.675 34.1965C39.675 32.2635 38.108 30.6965 36.175 30.6965C34.2421 30.6965 32.675 32.2635 32.675 34.1965C32.675 36.1295 34.2421 37.6965 36.175 37.6965Z" fill="#0F5B8A"/>
<path d="M36.175 69.1965C38.108 69.1965 39.675 67.6295 39.675 65.6965C39.675 63.7635 38.108 62.1965 36.175 62.1965C34.2421 62.1965 32.675 63.7635 32.675 65.6965C32.675 67.6295 34.2421 69.1965 36.175 69.1965Z" fill="#3BBF44"/>
<g clip-path="url(#clip0_229_430)">
<path d="M63.9282 84.0715L63.9282 83.634L63.9282 84.0715C67.3584 84.0713 70.7105 85.0956 73.5547 87.0131C76.3499 88.8975 78.5294 91.5601 79.8246 94.6696C78.5298 97.7795 76.3504 100.443 73.5552 102.328C70.711 104.245 67.3587 105.27 63.9282 105.27C60.4977 105.27 57.1454 104.245 54.3012 102.328C51.506 100.443 49.3266 97.7795 48.0317 94.6696C49.327 91.5601 51.5065 88.8975 54.3017 87.0131C57.1459 85.0956 60.498 84.0713 63.9282 84.0715Z" fill="#37FF45" stroke="#24752A" stroke-width="0.875"/>
<path d="M65.2892 100.187C68.3366 100.187 70.807 97.717 70.807 94.6696C70.807 91.6222 68.3366 89.1519 65.2892 89.1519C62.2419 89.1519 59.7715 91.6222 59.7715 94.6696C59.7715 97.717 62.2419 100.187 65.2892 100.187Z" fill="#3BBF44"/>
<path d="M63.9282 100.187C66.9755 100.187 69.4459 97.717 69.4459 94.6696C69.4459 91.6222 66.9755 89.1519 63.9282 89.1519C60.8808 89.1519 58.4104 91.6222 58.4104 94.6696C58.4104 97.717 60.8808 100.187 63.9282 100.187Z" fill="#051E2E"/>
<path d="M69.0781 92.7494C68.6756 91.6618 67.9407 90.7287 66.9777 90.0825C66.8245 90.3606 66.746 90.6736 66.7496 90.9911C66.7496 91.4789 66.9434 91.9467 67.2883 92.2917C67.6333 92.6366 68.1011 92.8304 68.5889 92.8304C68.7549 92.8256 68.9195 92.7984 69.0781 92.7494V92.7494Z" fill="#051E2E"/>
<path d="M67.6066 92.8304C68.6224 92.8304 69.4458 92.0069 69.4458 90.9911C69.4458 89.9753 68.6224 89.1519 67.6066 89.1519C66.5908 89.1519 65.7673 89.9753 65.7673 90.9911C65.7673 92.0069 66.5908 92.8304 67.6066 92.8304Z" fill="#E5FFE7"/>
</g>
<defs>
<clipPath id="clip0_229_430">
<rect width="33.1066" height="22.4389" fill="white" transform="translate(47.375 83.634)"/>
</clipPath>
</defs>
</svg>
