<svg width="128" height="128" viewBox="0 0 128 128" fill="none" xmlns="http://www.w3.org/2000/svg">
<path d="M33.4315 64.1928L35.4212 70.4096L94.1192 73C93.1243 70.4096 94.1192 67.8193 94.1192 62.6386C113.022 60.0482 114.017 48.1325 112.524 45.0241C111.032 41.9157 106.058 30 62.283 30C18.5083 30 13.5339 45.0241 14.0313 51.241C14.4293 56.2145 27.1306 61.9478 33.4315 64.1928Z" fill="#37FF45"/>
<path d="M93.5 73.9999C66.5 63.5 33.5 73.9999 33.5 73.9999V102C33.5 102 63.5 110.5 96 102C96 90.4998 96 84.4998 93.5 73.9999Z" fill="#1994E1"/>
<path fill-rule="evenodd" clip-rule="evenodd" d="M64 24C36.9 24 8 32.4 8 48V88C8 103.6 36.9 112 64 112C91.1 112 120 103.6 120 88V48C120 32.4 91.1 24 64 24ZM64 32C93.7 32 112 41.3 112 48C112 52.1 105.3 56.8 94.8 59.9L92 60.8V67C88.3 66.1 84.3 65.4 80 64.9V64C80 55.2 72.8 48 64 48C55.2 48 48 55.2 48 64V64.9C43.7 65.4 39.7 66.1 36 67V60.8L33.2 59.9C22.7 56.8 16 52.1 16 48C16 41.3 34.3 32 64 32ZM56 64C56 59.6 59.6 56 64 56C68.4 56 72 59.6 72 64C72 68.4 68.4 72 64 72C59.6 72 56 68.4 56 64ZM36 100.8V75.3C40.3 74.2 45.2 73.3 50.6 72.7C51.1 73.5 51.7 74.3 52.4 75C45 79.1 40 87 40 96H48C48 87.2 55.2 80 64 80C72.8 80 80 87.2 80 96H88C88 87 83 79.1 75.6 75C76.3 74.3 76.9 73.5 77.4 72.7C82.8 73.3 87.7 74.2 92 75.3V100.8C84.5 102.8 75 104 64 104C53 104 43.5 102.7 36 100.8Z" fill="#051E2E"/>
<path d="M44 52C46.2091 52 48 50.2091 48 48C48 45.7909 46.2091 44 44 44C41.7909 44 40 45.7909 40 48C40 50.2091 41.7909 52 44 52Z" fill="black"/>
<circle cx="64" cy="64" r="9" fill="#6EC8FF"/>
<path d="M79 93C79 89.0218 77.4196 85.2064 74.6066 82.3934C71.7936 79.5804 67.9782 78 64 78C60.0218 78 56.2064 79.5804 53.3934 82.3934C50.5804 85.2064 49 89.0218 49 93L64 93H79Z" fill="#051E2E" stroke="#051E2E" stroke-width="6"/>
</svg>
