<svg width="128" height="128" viewBox="0 0 128 128" fill="none" xmlns="http://www.w3.org/2000/svg">
<path d="M107.5 63C107.5 87.5767 87.5767 107.5 63 107.5C38.4233 107.5 18.5 87.5767 18.5 63C18.5 38.4233 38.4233 18.5 63 18.5C87.5767 18.5 107.5 38.4233 107.5 63Z" fill="#1994E1" stroke="#051E2E" stroke-width="7"/>
<path d="M105 80H20" stroke="#051E2E" stroke-width="8" stroke-miterlimit="10"/>
<path d="M105 46H20" stroke="#051E2E" stroke-width="8" stroke-miterlimit="10"/>
<path d="M63 18C56.9763 23.9093 52.198 30.9249 48.938 38.646C45.6779 46.3671 44 54.6426 44 63C44 71.3574 45.6779 79.6329 48.938 87.354C52.198 95.0751 56.9763 102.091 63 108C69.0237 102.091 73.802 95.0751 77.062 87.354C80.3221 79.6329 82 71.3574 82 63C82 54.6426 80.3221 46.3671 77.062 38.646C73.802 30.9249 69.0237 23.9093 63 18V18Z" stroke="#051E2E" stroke-width="8" stroke-linejoin="round"/>
<path d="M113.41 72.14L119.82 66.14L113.33 54.89L104.92 57.43L96.4999 52.57L94.4999 44.01H81.4999L79.4999 52.57L71.0799 57.43L62.6699 54.89L56.1599 66.12L62.5699 72.12V81.85L56.1599 87.85L62.6499 99.1L71.0599 96.56L79.4799 101.42L81.4799 109.98H94.4799L96.4799 101.42L104.9 96.56L113.31 99.1L119.8 87.85L113.39 81.85L113.41 72.14ZM87.9999 86.65C86.0909 86.652 84.2242 86.0877 82.6359 85.0286C81.0477 83.9694 79.8093 82.463 79.0774 80.6998C78.3454 78.9367 78.1529 76.9961 78.5241 75.1235C78.8953 73.2509 79.8136 71.5306 81.1628 70.18C82.512 68.8294 84.2314 67.9093 86.1036 67.5362C87.9758 67.163 89.9166 67.3535 91.6805 68.0836C93.4444 68.8137 94.9521 70.0506 96.0129 71.6377C97.0737 73.2249 97.6399 75.091 97.6399 77C97.6399 79.5576 96.6246 82.0106 94.817 83.8201C93.0095 85.6295 90.5575 86.6474 87.9999 86.65V86.65Z" fill="#184E1C"/>
<path d="M105.907 74.4099L105.59 74.7063V75.14V84.88V85.3137L105.907 85.6101L111.736 91.0667L106.032 100.914L98.3792 98.6027L97.965 98.4776L97.5902 98.6939L89.1702 103.554L88.7949 103.771L88.6963 104.192L86.8768 111.98H75.4634L73.6439 104.192L73.5453 103.771L73.17 103.554L64.75 98.6939L64.3752 98.4776L63.961 98.6027L56.3101 100.913L50.6129 91.0377L56.4435 85.5801L56.7601 85.2837V84.85V75.12V74.6863L56.4435 74.3899L50.6135 68.9329L56.3192 59.0663L63.971 61.3773L64.3852 61.5024L64.76 61.2861L73.18 56.4261L73.5553 56.2095L73.6539 55.7875L75.4734 48H86.8868L88.7063 55.7875L88.8049 56.2095L89.1802 56.4261L97.6002 61.2861L97.9744 61.5021L98.3882 61.3776L106.04 59.0758L111.737 68.9523L105.907 74.4099ZM75.2533 88.8552C77.0047 90.0254 79.0637 90.65 81.1701 90.65C83.9947 90.65 86.7035 89.5279 88.7008 87.5307C90.6981 85.5334 91.8201 82.8246 91.8201 80C91.8201 77.8936 91.1955 75.8346 90.0252 74.0832C88.855 72.3318 87.1917 70.9668 85.2457 70.1607C83.2996 69.3546 81.1583 69.1437 79.0924 69.5546C77.0265 69.9656 75.1288 70.9799 73.6394 72.4693C72.15 73.9587 71.1357 75.8564 70.7247 77.9223C70.3138 79.9882 70.5247 82.1295 71.3308 84.0756C72.1369 86.0216 73.5019 87.6849 75.2533 88.8552Z" fill="#37FF45" stroke="#051E2E" stroke-width="2"/>
</svg>
