<svg width="604" height="351" viewBox="0 0 604 351" fill="none" xmlns="http://www.w3.org/2000/svg">
<path d="M81.5843 184.805L58.722 224.404L58.8533 182.2L58.8536 182.13L58.8537 182.113L58.8537 182.108L58.8537 182.107L58.8538 182.098L58.8708 176.632H53.4053H13.7419C9.16158 176.632 5.44847 172.919 5.44847 168.339V13.7419C5.44847 9.16158 9.16158 5.44847 13.7419 5.44847H334.96C339.54 5.44847 343.253 9.16158 343.253 13.7419V168.339C343.253 172.919 339.54 176.632 334.96 176.632H95.7399C89.9002 176.632 84.5042 179.748 81.5843 184.805Z" fill="#37FF45" stroke="#051E2E" stroke-width="10.8969"/>
<path d="M10.897 13.6212C10.897 12.1166 12.1167 10.8969 13.6212 10.8969H32.6908V171.627H13.6212C12.1167 171.627 10.897 170.407 10.897 168.902V13.6212Z" fill="#3BBF44"/>
<path opacity="0.1" d="M59 262C78.33 262 94 259.538 94 256.5C94 253.462 78.33 251 59 251C39.67 251 24 253.462 24 256.5C24 259.538 39.67 262 59 262Z" fill="black"/>
<rect opacity="0.3" x="228.836" y="62.6573" width="108.969" height="108.969" rx="10.8969" fill="#0F5B8A"/>
<path d="M521.833 273.343L544.695 312.941L544.564 270.738L544.564 270.668L544.564 270.65L544.564 270.646L544.564 270.645L544.564 270.635L544.547 265.17H550.012H589.676C594.256 265.17 597.969 261.457 597.969 256.876V102.28C597.969 97.6992 594.256 93.9861 589.676 93.9861H268.458C263.877 93.9861 260.164 97.6992 260.164 102.28V256.876C260.164 261.457 263.877 265.17 268.458 265.17H507.678C513.517 265.17 518.913 268.285 521.833 273.343Z" fill="#1994E1" stroke="#051E2E" stroke-width="10.8969"/>
<path d="M592.521 102.159C592.521 100.654 591.301 99.4345 589.797 99.4345H570.727V260.164H589.797C591.301 260.164 592.521 258.945 592.521 257.44V102.159Z" fill="#0F5B8A"/>
<path opacity="0.1" d="M552 351C576.301 351 596 348.09 596 344.5C596 340.91 576.301 338 552 338C527.699 338 508 340.91 508 344.5C508 348.09 527.699 351 552 351Z" fill="black"/>
</svg>
