<svg width="122" height="128" viewBox="0 0 122 128" fill="none" xmlns="http://www.w3.org/2000/svg">
<rect x="-0.0982756" y="-1.0078" width="3.15458" height="25.7762" transform="matrix(-0.635141 0.772396 0.772396 0.635141 51.7117 32.7082)" fill="#37FF45" stroke="#051E2E" stroke-width="1.43201"/>
<rect x="93.6834" y="26.2147" width="3.15458" height="25.7762" transform="rotate(44.7938 93.6834 26.2147)" fill="#37FF45" stroke="#051E2E" stroke-width="1.43201"/>
<rect x="46.3798" y="34.6626" width="2.86402" height="27.9242" transform="rotate(44.1954 46.3798 34.6626)" fill="#37FF45" stroke="#051E2E" stroke-width="1.43201"/>
<path d="M26.728 67.6368C31.4733 67.6368 35.3201 63.79 35.3201 59.0447C35.3201 54.2994 31.4733 50.4526 26.728 50.4526C21.9828 50.4526 18.136 54.2994 18.136 59.0447C18.136 63.79 21.9828 67.6368 26.728 67.6368Z" fill="#1994E1" stroke="#051E2E" stroke-width="5.72804"/>
<rect x="21.7161" y="79.8088" width="10.7401" height="30.0722" rx="2.93562" fill="#37FF45" stroke="#051E2E" stroke-width="5.72804"/>
<rect x="28.1599" y="82.6729" width="1.43201" height="24.3442" rx="0.0716005" fill="#3BBF44"/>
<path d="M49.6404 41.8606C54.3857 41.8606 58.2325 38.0138 58.2325 33.2686C58.2325 28.5233 54.3857 24.6765 49.6404 24.6765C44.8951 24.6765 41.0483 28.5233 41.0483 33.2686C41.0483 38.0138 44.8951 41.8606 49.6404 41.8606Z" fill="#1994E1" stroke="#051E2E" stroke-width="5.72804"/>
<rect x="44.6284" y="54.7488" width="10.7401" height="55.1324" rx="2.93562" fill="#37FF45" stroke="#051E2E" stroke-width="5.72804"/>
<rect x="51.0723" y="57.6128" width="1.43201" height="49.4044" rx="0.0716005" fill="#3BBF44"/>
<path d="M72.5523 57.6126C77.2975 57.6126 81.1443 53.7658 81.1443 49.0205C81.1443 44.2753 77.2975 40.4285 72.5523 40.4285C67.807 40.4285 63.9602 44.2753 63.9602 49.0205C63.9602 53.7658 67.807 57.6126 72.5523 57.6126Z" fill="#1994E1" stroke="#051E2E" stroke-width="5.72804"/>
<rect x="67.5403" y="66.9209" width="10.7401" height="42.9603" rx="2.93562" fill="#37FF45" stroke="#051E2E" stroke-width="5.72804"/>
<rect x="73.9844" y="69.7849" width="1.43201" height="37.2323" rx="0.0716005" fill="#3BBF44"/>
<path d="M95.4646 36.1326C100.21 36.1326 104.057 32.2858 104.057 27.5405C104.057 22.7953 100.21 18.9485 95.4646 18.9485C90.7193 18.9485 86.8726 22.7953 86.8726 27.5405C86.8726 32.2858 90.7193 36.1326 95.4646 36.1326Z" fill="#1994E1" stroke="#051E2E" stroke-width="5.72804"/>
<rect x="90.4524" y="48.3047" width="10.7401" height="61.5765" rx="2.93562" fill="#37FF45" stroke="#051E2E" stroke-width="5.72804"/>
<rect x="96.8965" y="51.1687" width="1.43201" height="55.8484" rx="0.0716005" fill="#3BBF44"/>
</svg>
