<svg width="161" height="128" viewBox="0 0 161 128" fill="none" xmlns="http://www.w3.org/2000/svg">
<path d="M29.0718 45.4989L29.0723 45.4984C30.6231 43.9476 30.6231 41.4296 29.0723 39.8789C27.5216 38.3282 25.0036 38.3282 23.4529 39.8789C17.1299 46.2019 13.6392 54.6191 13.6392 63.5596C13.6392 72.5031 17.1286 80.9191 23.4498 87.2418C24.2241 88.0224 25.2463 88.4114 26.2603 88.4114C27.2762 88.4114 28.2923 88.0216 29.0662 87.2556L29.0723 87.2495C30.6231 85.6987 30.6231 83.1807 29.0723 81.63L29.0718 81.6294C24.2418 76.8036 21.587 70.393 21.587 63.5596C21.587 56.7356 24.2415 50.3249 29.0718 45.4989Z" fill="#37FF45" stroke="black" stroke-width="3.40621"/>
<path d="M43.847 46.3036L43.844 46.3005C42.2932 44.7498 39.7752 44.7498 38.2245 46.3005C28.7078 55.8172 28.7078 71.3061 38.2245 80.8229C39.0062 81.6046 40.0285 81.9848 41.0365 81.9848C42.0508 81.9848 43.071 81.5958 43.844 80.8229C45.3947 79.2721 45.3947 76.7541 43.844 75.2034L43.8436 75.203C37.4243 68.7878 37.4243 58.3356 43.8436 51.9204L43.844 51.92C45.3964 50.3676 45.392 47.8564 43.847 46.3036Z" fill="#37FF45" stroke="black" stroke-width="3.40621"/>
<path d="M131.735 45.4984L131.735 45.4989C136.565 50.3249 139.22 56.7356 139.22 63.5596C139.22 70.3883 136.565 76.799 131.735 81.6249L131.735 81.6254C130.184 83.1762 130.184 85.6942 131.735 87.2449C132.51 88.0206 133.53 88.4114 134.547 88.4114C135.563 88.4114 136.579 88.0216 137.352 87.2556L137.359 87.2495C143.682 80.9264 147.172 72.5091 147.172 63.5642V63.5633C147.168 54.6189 143.677 46.202 137.354 39.8789C135.803 38.3282 133.285 38.3282 131.735 39.8789C130.184 41.4296 130.184 43.9476 131.735 45.4984Z" fill="#37FF45" stroke="black" stroke-width="3.40621"/>
<path d="M116.963 75.203L116.963 75.2034C115.412 76.7541 115.412 79.2721 116.963 80.8229C117.744 81.6046 118.767 81.9848 119.775 81.9848C120.791 81.9848 121.807 81.595 122.58 80.829L122.587 80.8225C132.099 71.3058 132.099 55.8172 122.582 46.3005C121.031 44.7498 118.513 44.7498 116.963 46.3005C115.412 47.8512 115.412 50.3693 116.963 51.92C123.383 58.34 123.382 68.788 116.963 75.203Z" fill="#37FF45" stroke="black" stroke-width="3.40621"/>
<path d="M97.943 15.0356H63.0293V112.113H97.943V15.0356Z" fill="#37FF45"/>
<path d="M98.7944 9.50049H62.4615C56.1986 9.50049 51.1074 14.5916 51.1074 20.8545V107.145C51.1074 113.408 56.1986 118.499 62.4615 118.499H98.7944C105.057 118.499 110.148 113.408 110.148 107.145V20.8545C110.148 14.5916 105.057 9.50049 98.7944 9.50049ZM76.0863 18.5837H85.1696C86.423 18.5837 87.4404 19.601 87.4404 20.8545C87.4404 22.108 86.423 23.1253 85.1696 23.1253H76.0863C74.8328 23.1253 73.8155 22.108 73.8155 20.8545C73.8155 19.601 74.8328 18.5837 76.0863 18.5837ZM80.6279 109.416C78.121 109.416 76.0863 107.381 76.0863 104.874C76.0863 102.368 78.121 100.333 80.6279 100.333C83.1349 100.333 85.1696 102.368 85.1696 104.874C85.1696 107.381 83.1349 109.416 80.6279 109.416ZM90.9147 65.9256L72.7482 77.2796C72.3849 77.5112 71.9625 77.6248 71.5447 77.6248C71.1678 77.6248 70.7863 77.5294 70.4456 77.3432C69.7235 76.9435 69.2739 76.1805 69.2739 75.354V52.6459C69.2739 51.8193 69.7235 51.0563 70.4456 50.6566C71.1678 50.257 72.0534 50.2797 72.7482 50.7202L90.9147 62.0743C91.5778 62.4876 91.982 63.2142 91.982 63.9999C91.982 64.7856 91.5778 65.5123 90.9147 65.9256Z" fill="#051E2E"/>
<rect x="56.2166" y="15.4614" width="48.5385" height="97.0771" rx="10.6178" fill="#1994E1"/>
<path opacity="0.3" d="M63.8806 15.4614H96.692C102.556 15.4614 107.31 20.2152 107.31 26.0792V101.921C107.31 107.785 102.556 112.539 96.692 112.539H95.8139L63.8806 15.4614Z" fill="black"/>
<path d="M74.3711 74.2702L90.3476 64.9935C91.7639 64.1711 91.764 62.1256 90.3476 61.3032L74.3711 52.0265C72.9486 51.2006 71.1661 52.2269 71.1661 53.8716L71.1661 72.425C71.1661 74.0699 72.9487 75.0961 74.3711 74.2702Z" fill="#37FF45" stroke="#051E2E" stroke-width="4.16315"/>
</svg>
