<svg width="128" height="128" viewBox="0 0 128 128" fill="none" xmlns="http://www.w3.org/2000/svg">
<path d="M48.9355 80.2903C48.5518 79.2237 47.5401 78.5125 46.4066 78.5125H33.0196C31.1585 78.5125 29.8608 80.3584 30.4908 82.1096L37.8381 102.535C38.2218 103.601 39.2334 104.312 40.3669 104.312H53.7539C55.615 104.312 56.9127 102.467 56.2828 100.715L48.9355 80.2903Z" fill="#37FF45" stroke="#051E2E" stroke-width="5.375"/>
<path d="M43.3152 47.875H23.6875C22.2032 47.875 21 49.0782 21 50.5625V77.4375C21 78.9218 22.2032 80.125 23.6875 80.125H43.3152C44.7995 80.125 46.0027 78.9218 46.0027 77.4375V50.5625C46.0027 49.0782 44.7995 47.875 43.3152 47.875Z" fill="#1994E1" stroke="#051E2E" stroke-width="7.16667"/>
<path d="M42.5 49.5757C42.5 48.5372 43.0984 47.5915 44.037 47.1469L89.7245 25.5055C91.5075 24.6609 93.5625 25.9614 93.5625 27.9343V100.066C93.5625 102.039 91.5075 103.339 89.7245 102.495L44.037 80.8531C43.0984 80.4085 42.5 79.4628 42.5 78.4243V49.5757Z" fill="#1994E1" stroke="#051E2E" stroke-width="7.16667"/>
<path d="M85.5 33.5417L82.8125 95.3542L85.5 96.5787V33.5417Z" fill="#2175AA"/>
<path d="M88.1875 22.7917H97.1458C97.6406 22.7917 98.0417 23.1927 98.0417 23.6875V104.312C98.0417 104.807 97.6406 105.208 97.1458 105.208H88.1875C87.6927 105.208 87.2917 104.807 87.2917 104.312V23.6875C87.2917 23.1927 87.6927 22.7917 88.1875 22.7917Z" fill="#37FF45" stroke="#051E2E" stroke-width="3.58333"/>
<path d="M98.0417 72.2642V55.7358L105.208 58.1247V69.8753L98.0417 72.2642Z" fill="#1994E1" stroke="#051E2E" stroke-width="3.58333"/>
<mask id="path-7-inside-1_229_326" fill="white">
<path d="M96.25 53.25V74.75L98.606 73.9617L96.25 53.25Z"/>
</mask>
<path d="M96.25 53.25V74.75L98.606 73.9617L96.25 53.25Z" fill="#87DBEC"/>
<path d="M96.25 53.25L99.8104 52.845L92.6667 53.25H96.25ZM96.25 74.75H92.6667V79.7276L97.387 78.1482L96.25 74.75ZM98.606 73.9617L99.7431 77.3598L102.494 76.4393L102.166 73.5567L98.606 73.9617ZM92.6667 53.25V74.75H99.8333V53.25H92.6667ZM97.387 78.1482L99.7431 77.3598L97.469 70.5635L95.113 71.3518L97.387 78.1482ZM102.166 73.5567L99.8104 52.845L92.6896 53.655L95.0457 74.3667L102.166 73.5567Z" fill="#051E2E" mask="url(#path-7-inside-1_229_326)"/>
</svg>
