<svg width="139" height="128" viewBox="0 0 139 128" fill="none" xmlns="http://www.w3.org/2000/svg">
<path d="M25.7747 101.748L42.2284 86.2625H102.72C106.914 84.8107 115.302 79.9714 115.302 72.2285V35.4496C113.85 30.6103 108.624 20.9316 99.3324 20.9316H37.873C32.8724 21.5769 22.8711 25.3838 22.8711 35.4496V105.62L25.7747 101.748Z" fill="#37FF45"/>
<path d="M115.302 72.2285C115.302 79.9714 106.914 84.8107 102.72 86.2625H42.2284L25.7747 101.748L22.8711 105.62M115.302 72.2285C115.302 64.4856 115.302 44.483 115.302 35.4496M115.302 72.2285V35.4496M115.302 35.4496C113.85 30.6103 108.624 20.9316 99.3324 20.9316M99.3324 20.9316C90.0409 20.9316 54.488 20.9316 37.873 20.9316M99.3324 20.9316H37.873M37.873 20.9316C32.8724 21.5769 22.8711 25.3838 22.8711 35.4496M22.8711 35.4496C22.8711 45.5154 22.8711 86.4238 22.8711 105.62M22.8711 35.4496V105.62" stroke="black" stroke-width="0.612072"/>
<path d="M99.8162 86.2626V23.8353C107.946 22.2868 112.882 28.0294 114.334 31.0943C114.495 43.6766 114.721 70.5832 114.334 77.5518C113.947 84.5205 104.494 86.2626 99.8162 86.2626Z" fill="#3BBF44"/>
<path d="M22.8715 110.459C22.3636 110.473 21.8598 110.366 21.4003 110.15C20.6933 109.859 20.0881 109.366 19.6609 108.732C19.2338 108.098 19.0038 107.352 19 106.588V36.05C19.0553 33.5637 19.5999 31.1127 20.6028 28.8369C21.6056 26.5612 23.047 24.5053 24.8446 22.7868C26.6423 21.0682 28.7609 19.7207 31.0794 18.8212C33.398 17.9218 35.871 17.4879 38.3573 17.5444H100.301C102.787 17.4879 105.26 17.9218 107.579 18.8212C109.897 19.7207 112.016 21.0682 113.813 22.7868C115.611 24.5053 117.052 26.5612 118.055 28.8369C119.058 31.1127 119.603 33.5637 119.658 36.05V72.5966C119.603 75.0829 119.058 77.534 118.055 79.8097C117.052 82.0855 115.611 84.1413 113.813 85.8599C112.016 87.5784 109.897 88.9259 107.579 89.8254C105.26 90.7249 102.787 91.1587 100.301 91.1022H43.8161L25.6202 109.337C25.2584 109.696 24.8294 109.979 24.3577 110.172C23.886 110.365 23.381 110.462 22.8715 110.459ZM38.3573 25.2874C35.3921 25.1826 32.506 26.2558 30.3297 28.2725C28.1534 30.2892 26.8638 33.0854 26.7429 36.05V97.2578L39.48 84.482C39.8418 84.1232 40.2708 83.8393 40.7425 83.6466C41.2142 83.454 41.7192 83.3563 42.2288 83.3593H100.301C103.266 83.464 106.152 82.3908 108.328 80.3741C110.505 78.3574 111.794 75.5612 111.915 72.5966V36.05C111.794 33.0854 110.505 30.2892 108.328 28.2725C106.152 26.2558 103.266 25.1826 100.301 25.2874H38.3573Z" fill="#051E2E"/>
<path d="M69.3292 60.1307C72.5364 60.1307 75.1364 57.5308 75.1364 54.3235C75.1364 51.1163 72.5364 48.5164 69.3292 48.5164C66.1219 48.5164 63.522 51.1163 63.522 54.3235C63.522 57.5308 66.1219 60.1307 69.3292 60.1307Z" fill="#051E2E"/>
<path d="M90.6221 60.1307C93.8294 60.1307 96.4293 57.5308 96.4293 54.3235C96.4293 51.1163 93.8294 48.5164 90.6221 48.5164C87.4149 48.5164 84.8149 51.1163 84.8149 54.3235C84.8149 57.5308 87.4149 60.1307 90.6221 60.1307Z" fill="#051E2E"/>
<path d="M48.0359 60.1307C51.2432 60.1307 53.8431 57.5308 53.8431 54.3235C53.8431 51.1163 51.2432 48.5164 48.0359 48.5164C44.8287 48.5164 42.2288 51.1163 42.2288 54.3235C42.2288 57.5308 44.8287 60.1307 48.0359 60.1307Z" fill="#051E2E"/>
</svg>
