<svg width="152" height="128" viewBox="0 0 152 128" fill="none" xmlns="http://www.w3.org/2000/svg">
<path d="M18.3163 40.4335H108.312L108.312 95.2132L18.3163 95.2132L18.3163 40.4335L18.3163 40.4335Z" fill="#0F5B8A" stroke="black" stroke-width="3.91284"/>
<path d="M96.5731 16.9564V95.2132H30.0549V16.9564L96.5731 16.9564H96.5731Z" fill="#37FF45" stroke="#051E2E" stroke-width="3.91284"/>
<path d="M98.5294 47.0011C98.5294 46.5591 98.0411 46.2917 97.6687 46.5296L69.2117 64.7107C68.2275 65.3396 68.0775 66.7175 68.9033 67.5434V67.5434C69.5466 68.1866 70.5649 68.2589 71.2926 67.7131L98.3057 47.4486C98.4465 47.3429 98.5294 47.1771 98.5294 47.0011V47.0011Z" fill="#87DBEC"/>
<path d="M28.0984 47.0011C28.0984 46.5591 28.5867 46.2917 28.9591 46.5296L57.4161 64.7107C58.4003 65.3396 58.5503 66.7175 57.7244 67.5434V67.5434C57.0812 68.1866 56.0629 68.2589 55.3352 67.7131L28.3221 47.4486C28.1813 47.3429 28.0984 47.1771 28.0984 47.0011V47.0011Z" fill="#87DBEC"/>
<path d="M87.1755 24.7822H61.3715C60.3351 24.7822 59.4949 25.6224 59.4949 26.6589V28.5355C59.4949 29.572 60.3351 30.4122 61.3715 30.4122H87.1755C88.212 30.4122 89.0522 29.572 89.0522 28.5355V26.6589C89.0522 25.6224 88.212 24.7822 87.1755 24.7822Z" fill="#3BBF44"/>
<path d="M87.1755 34.1653H61.3715C60.3351 34.1653 59.4949 35.0055 59.4949 36.0419V37.9186C59.4949 38.955 60.3351 39.7952 61.3715 39.7952H87.1755C88.212 39.7952 89.0522 38.955 89.0522 37.9186V36.0419C89.0522 35.0055 88.212 34.1653 87.1755 34.1653Z" fill="#3BBF44"/>
<path d="M87.1756 43.5486H39.4523C38.4159 43.5486 37.5757 44.3888 37.5757 45.4252V47.3019C37.5757 48.3383 38.4159 49.1785 39.4523 49.1785H87.1756C88.2121 49.1785 89.0523 48.3383 89.0523 47.3019V45.4252C89.0523 44.3888 88.2121 43.5486 87.1756 43.5486Z" fill="#3BBF44"/>
<path d="M19.4779 44.1028L99.396 94.0516H19.4779V44.1028Z" fill="#1994E1" stroke="black" stroke-width="6.23609"/>
<path d="M107.15 94.0516H27.2318L107.15 44.1028V94.0516Z" fill="#1994E1" stroke="black" stroke-width="6.23609"/>
<path d="M99.2472 94.0517H27.3807C27.1391 94.0517 27.0006 93.9841 26.9085 93.9151C26.7992 93.8333 26.6945 93.6997 26.6317 93.5228C26.5689 93.3459 26.566 93.1762 26.5991 93.0437C26.6271 92.9321 26.692 92.7924 26.8795 92.64L62.8127 63.4443C63.1047 63.207 63.5231 63.207 63.8151 63.4443L99.7484 92.64C99.9359 92.7924 100.001 92.9321 100.029 93.0437C100.062 93.1762 100.059 93.3459 99.9962 93.5228C99.9333 93.6997 99.8286 93.8333 99.7193 93.9151C99.6272 93.9841 99.4888 94.0517 99.2472 94.0517Z" fill="#1994E1" stroke="black" stroke-width="6.23609"/>
<path d="M53.865 24.7822H39.4523C38.4159 24.7822 37.5757 25.6224 37.5757 26.6589V37.9188C37.5757 38.9552 38.4159 39.7955 39.4523 39.7955H53.865C54.9015 39.7955 55.7417 38.9552 55.7417 37.9188V26.6589C55.7417 25.6224 54.9015 24.7822 53.865 24.7822Z" fill="#3BBF44"/>
<path d="M92.7595 91.0253H43.3599L85.4229 85.156L92.7595 91.0253Z" fill="#0F5B8A"/>
<path d="M90.9215 109.937L98.5767 102.732H126.721C128.672 102.057 132.575 99.8051 132.575 96.2026V79.091C131.899 76.8395 129.468 72.3364 125.145 72.3364H96.5503C94.2237 72.6366 89.5706 74.4078 89.5706 79.091V111.738L90.9215 109.937Z" fill="#37FF45"/>
<path d="M132.575 96.2026C132.575 99.8051 128.672 102.057 126.721 102.732H98.5767L90.9215 109.937L89.5706 111.738M132.575 96.2026C132.575 92.6002 132.575 83.2939 132.575 79.091M132.575 96.2026V79.091M132.575 79.091C131.899 76.8395 129.468 72.3364 125.145 72.3364M125.145 72.3364C120.822 72.3364 104.281 72.3364 96.5503 72.3364M125.145 72.3364H96.5503M96.5503 72.3364C94.2237 72.6366 89.5706 74.4078 89.5706 79.091M89.5706 79.091C89.5706 83.7742 89.5706 102.807 89.5706 111.738M89.5706 79.091V111.738" stroke="black" stroke-width="0.657235"/>
<path d="M125.37 102.732V73.6874C129.152 72.967 131.449 75.6388 132.124 77.0647C132.199 82.9187 132.304 95.4372 132.124 98.6794C131.944 101.922 127.546 102.732 125.37 102.732Z" fill="#3BBF44"/>
<path d="M89.5705 113.99C89.3342 113.996 89.0998 113.946 88.886 113.846C88.5571 113.71 88.2755 113.481 88.0768 113.186C87.8781 112.891 87.7711 112.544 87.7693 112.188V79.3702C87.795 78.2134 88.0484 77.073 88.515 76.0142C88.9816 74.9554 89.6522 73.9989 90.4885 73.1994C91.3249 72.3998 92.3106 71.7729 93.3893 71.3544C94.468 70.9359 95.6186 70.734 96.7754 70.7603H125.595C126.752 70.734 127.902 70.9359 128.981 71.3544C130.06 71.7729 131.045 72.3998 131.882 73.1994C132.718 73.9989 133.389 74.9554 133.855 76.0142C134.322 77.073 134.575 78.2134 134.601 79.3702V96.3737C134.575 97.5305 134.322 98.6709 133.855 99.7297C133.389 100.788 132.718 101.745 131.882 102.545C131.045 103.344 130.06 103.971 128.981 104.39C127.902 104.808 126.752 105.01 125.595 104.984H99.3151L90.8494 113.467C90.6811 113.634 90.4815 113.766 90.262 113.856C90.0426 113.946 89.8076 113.991 89.5705 113.99ZM96.7754 74.3628C95.3958 74.314 94.053 74.8134 93.0405 75.7517C92.028 76.6899 91.428 77.9909 91.3717 79.3702V107.848L97.2978 101.903C97.4661 101.737 97.6657 101.604 97.8851 101.515C98.1046 101.425 98.3396 101.38 98.5766 101.381H125.595C126.975 101.43 128.317 100.931 129.33 99.9923C130.342 99.054 130.942 97.753 130.999 96.3737V79.3702C130.942 77.9909 130.342 76.6899 129.33 75.7517C128.317 74.8134 126.975 74.314 125.595 74.3628H96.7754Z" fill="#051E2E"/>
<path d="M111.185 90.5738C112.677 90.5738 113.887 89.3642 113.887 87.872C113.887 86.3798 112.677 85.1702 111.185 85.1702C109.693 85.1702 108.483 86.3798 108.483 87.872C108.483 89.3642 109.693 90.5738 111.185 90.5738Z" fill="#051E2E"/>
<path d="M121.092 90.5738C122.584 90.5738 123.794 89.3642 123.794 87.872C123.794 86.3798 122.584 85.1702 121.092 85.1702C119.6 85.1702 118.39 86.3798 118.39 87.872C118.39 89.3642 119.6 90.5738 121.092 90.5738Z" fill="#051E2E"/>
<path d="M101.278 90.5738C102.771 90.5738 103.98 89.3642 103.98 87.872C103.98 86.3798 102.771 85.1702 101.278 85.1702C99.7863 85.1702 98.5767 86.3798 98.5767 87.872C98.5767 89.3642 99.7863 90.5738 101.278 90.5738Z" fill="#051E2E"/>
</svg>
