<svg width="41" height="40" viewBox="0 0 41 40" fill="none" xmlns="http://www.w3.org/2000/svg">
<g clip-path="url(#clip0_209_704)">
<path d="M20.854 0C15.4227 0 14.7417 0.0230469 12.6087 0.120391C10.4801 0.2175 9.02633 0.555547 7.75425 1.05C6.43921 1.56109 5.32392 2.245 4.21222 3.35687C3.10044 4.46867 2.41659 5.58406 1.90554 6.89922C1.41113 8.17133 1.07312 9.62523 0.976015 11.754C0.87868 13.8872 0.855713 14.5683 0.855713 20C0.855713 25.4316 0.87868 26.1127 0.976015 28.2459C1.07312 30.3746 1.41113 31.8285 1.90554 33.1006C2.41659 34.4158 3.10044 35.5312 4.21222 36.6431C5.32392 37.7549 6.43921 38.4388 7.75425 38.9499C9.02633 39.4443 10.4801 39.7824 12.6087 39.8795C14.7417 39.9768 15.4227 39.9998 20.854 39.9998C26.2851 39.9998 26.9661 39.9768 29.0991 39.8795C31.2277 39.7824 32.6815 39.4443 33.9535 38.9499C35.2685 38.4388 36.3838 37.7549 37.4956 36.6431C38.6073 35.5312 39.2912 34.4158 39.8022 33.1006C40.2966 31.8285 40.6347 30.3746 40.7318 28.2459C40.829 26.1127 40.8521 25.4316 40.8521 20C40.8521 14.5683 40.829 13.8872 40.7318 11.754C40.6347 9.62523 40.2966 8.17133 39.8022 6.89922C39.2912 5.58406 38.6073 4.46867 37.4956 3.35687C36.3838 2.245 35.2685 1.56109 33.9535 1.05C32.6815 0.555547 31.2277 0.2175 29.0991 0.120391C26.9661 0.0230469 26.2851 0 20.854 0V0ZM20.854 3.60367C26.1937 3.60367 26.8262 3.62398 28.9349 3.72023C30.8847 3.80922 31.9436 4.135 32.6483 4.40883C33.5817 4.77164 34.2479 5.20508 34.9477 5.90492C35.6475 6.60477 36.0808 7.27109 36.4436 8.20453C36.7175 8.9093 37.0433 9.96828 37.1322 11.9182C37.2284 14.0272 37.2488 14.6598 37.2488 20C37.2488 25.3402 37.2284 25.9727 37.1322 28.0816C37.0433 30.0316 36.7175 31.0905 36.4436 31.7953C36.0808 32.7288 35.6475 33.3951 34.9477 34.0949C34.2479 34.7948 33.5817 35.2282 32.6483 35.591C31.9436 35.8649 30.8847 36.1907 28.9349 36.2796C26.8265 36.3759 26.1941 36.3963 20.854 36.3963C15.5137 36.3963 14.8814 36.3759 12.7729 36.2796C10.8231 36.1907 9.76423 35.8649 9.05953 35.591C8.1261 35.2282 7.4599 34.7948 6.76004 34.0949C6.06026 33.3951 5.62686 32.7288 5.26416 31.7953C4.99027 31.0905 4.66452 30.0316 4.57555 28.0816C4.4793 25.9727 4.45899 25.3402 4.45899 20C4.45899 14.6598 4.4793 14.0272 4.57555 11.9182C4.66452 9.96828 4.99027 8.9093 5.26416 8.20453C5.62686 7.27109 6.06026 6.60477 6.76004 5.90492C7.4599 5.20508 8.1261 4.77164 9.05953 4.40883C9.76423 4.135 10.8231 3.80922 12.7729 3.72023C14.8817 3.62398 15.5142 3.60367 20.854 3.60367Z" fill="#E8F4FC"/>
<path d="M20.851 26.6634C17.1693 26.6634 14.1848 23.6787 14.1848 19.9969C14.1848 16.3149 17.1693 13.3302 20.851 13.3302C24.5324 13.3302 27.517 16.3149 27.517 19.9969C27.517 23.6787 24.5324 26.6634 20.851 26.6634ZM20.851 9.72656C15.1793 9.72656 10.5815 14.3247 10.5815 19.9969C10.5815 25.6689 15.1793 30.267 20.851 30.267C26.5225 30.267 31.1202 25.6689 31.1202 19.9969C31.1202 14.3247 26.5225 9.72656 20.851 9.72656Z" fill="#E8F4FC"/>
<path d="M33.9341 9.33352C33.9341 10.6591 32.8597 11.7335 31.5343 11.7335C30.209 11.7335 29.1345 10.6591 29.1345 9.33352C29.1345 8.00805 30.209 6.93359 31.5343 6.93359C32.8597 6.93359 33.9341 8.00805 33.9341 9.33352Z" fill="#E8F4FC"/>
</g>
<defs>
<clipPath id="clip0_209_704">
<rect width="40.625" height="40" fill="white" transform="translate(0.375)"/>
</clipPath>
</defs>
</svg>
