<svg width="40" height="40" viewBox="0 0 40 40" fill="none" xmlns="http://www.w3.org/2000/svg">
<path d="M9.15062 17.3877C11.9951 22.9778 16.5778 27.5407 22.1679 30.4049L26.5136 26.0593C27.0469 25.5259 27.837 25.3481 28.5284 25.5852C30.7407 26.316 33.1309 26.7111 35.5802 26.7111C36.6667 26.7111 37.5556 27.6 37.5556 28.6864V35.5802C37.5556 36.6667 36.6667 37.5556 35.5802 37.5556C17.0321 37.5556 2 22.5235 2 3.97531C2 2.88889 2.88889 2 3.97531 2H10.8889C11.9753 2 12.8642 2.88889 12.8642 3.97531C12.8642 6.44444 13.2593 8.81482 13.9901 11.0272C14.2074 11.7185 14.0494 12.4889 13.4963 13.042L9.15062 17.3877Z" fill="#E8F4FC"/>
</svg>
