<svg width="50" height="40" viewBox="0 0 50 40" fill="none" xmlns="http://www.w3.org/2000/svg">
<g clip-path="url(#clip0_209_713)">
<path d="M49.2199 4.73385C47.4092 5.53846 45.4645 6.08154 43.4199 6.32308C45.5045 5.07385 47.1061 3.09538 47.8615 0.738462C45.9092 1.89385 43.7491 2.73692 41.4492 3.18769C39.6061 1.22615 36.9815 0 34.0753 0C28.4984 0 23.9799 4.52 23.9799 10.0969C23.9799 10.8877 24.0676 11.66 24.2399 12.3985C15.8476 11.9769 8.40762 7.95692 3.42608 1.84769C2.55839 3.34 2.05993 5.07385 2.05993 6.92462C2.05993 10.4292 3.843 13.5185 6.55069 15.3308C4.89685 15.2769 3.33993 14.8246 1.97839 14.0677C1.97685 14.1092 1.97685 14.1538 1.97685 14.1938C1.97685 19.0877 5.45685 23.1692 10.0768 24.0969C9.23069 24.3262 8.33839 24.4508 7.41685 24.4508C6.76454 24.4508 6.13377 24.3877 5.51839 24.2708C6.80146 28.28 10.5322 31.2 14.9492 31.2831C11.4953 33.9908 7.14146 35.6077 2.4107 35.6077C1.59531 35.6077 0.790696 35.56 0.00146484 35.4662C4.46916 38.3277 9.77685 40 15.4799 40C34.0522 40 44.2107 24.6138 44.2107 11.2692C44.2107 10.8323 44.1984 10.3954 44.1799 9.96154C46.1538 8.53846 47.8645 6.76154 49.2199 4.73385Z" fill="#E8F4FC"/>
</g>
<defs>
<clipPath id="clip0_209_713">
<rect width="49.375" height="40" fill="white"/>
</clipPath>
</defs>
</svg>
